<svg xmlns="http://www.w3.org/2000/svg" viewBox="0 0 1024 1024" width="32" height="32"><rect width="100%" height="100%"/><path d="M402 764.5h-5l-.5-.5-.5-.5h-9l-.5-.5-.5-.5h-4l-.5-.5-.5-.5h-4l-.5-.5-.5-.5h-2l-.5-.5-.5-.5h-2l-.5-.5-.5-.5h-2l-.5-.5-.5-.5h-1l-.5-.5-.5-.5h-2l-.5-.5-.5-.5h-1l-.5-.5-.5-.5-.5-.5-.5-.5h-1l-.5-.5-.5-.5h-1l-.5-.5-.5-.5h-1l-.5-.5-.5-.5-.5-.5-.5-.5h-1l-.5-.5-.5-.5-.5-.5-.5-.5h-1l-.5-.5-.5-.5-.5-.5-.5-.5h-1l-.5-.5-.5-.5-.5-.5-.5-.5h-1l-.5-.5-.5-.5-.5-.5-.5-.5-.5-.5-.5-.5h-1l-.5-.5-.5-.5-.5-.5-.5-.5-.5-.5-.5-.5h-1l-.5-.5-.5-.5-.5-.5-.5-.5-.5-.5-.5-.5-.5-.5-.5-.5h-1l-.5-.5-.5-.5-.5-.5-.5-.5-.5-.5-.5-.5-.5-.5-.5-.5-.5-.5-.5-.5-.5-.5-.5-.5h-1l-.5-.5-.5-.5-.5-.5-.5-.5-.5-.5-.5-.5-.5-.5-.5-.5-.5-.5-.5-.5-.5-.5-.5-.5-.5-.5-.5-.5-.5-.5-.5-.5-.5-.5-.5-.5-.5-.5-.5-.5-.5-.5-.5-.5-.5-.5-.5-.5-.5-.5-.5-.5-.5-.5-.5-.5-.5-.5-.5-.5-.5-.5-.5-.5-.5-.5-.5-.5-.5-.5-.5-.5-.5-.5-.5-.5-.5-.5-.5-.5-.5-.5-.5-.5-.5-.5-.5-.5-.5-.5-.5-.5-.5-.5-.5-.5-.5-.5v-1l-.5-.5-.5-.5-.5-.5-.5-.5-.5-.5-.5-.5-.5-.5-.5-.5-.5-.5-.5-.5-.5-.5-.5-.5-.5-.5-.5-.5v-1l-.5-.5-.5-.5-.5-.5-.5-.5-.5-.5-.5-.5-.5-.5-.5-.5-.5-.5-.5-.5v-1l-.5-.5-.5-.5-.5-.5-.5-.5-.5-.5-.5-.5v-1l-.5-.5-.5-.5-.5-.5-.5-.5-.5-.5-.5-.5v-1l-.5-.5-.5-.5-.5-.5-.5-.5-.5-.5-.5-.5v-1l-.5-.5-.5-.5-.5-.5-.5-.5v-1l-.5-.5-.5-.5-.5-.5-.5-.5v-1l-.5-.5-.5-.5-.5-.5-.5-.5v-1l-.5-.5-.5-.5-.5-.5-.5-.5v-1l-.5-.5-.5-.5-.5-.5-.5-.5v-1l-.5-.5-.5-.5-.5-.5-.5-.5v-1l-.5-.5-.5-.5v-1l-.5-.5-.5-.5-.5-.5-.5-.5v-1l-.5-.5-.5-.5v-1l-.5-.5-.5-.5v-1l-.5-.5-.5-.5-.5-.5-.5-.5v-1l-.5-.5-.5-.5v-1l-.5-.5-.5-.5v-1l-.5-.5-.5-.5v-1l-.5-.5-.5-.5v-1l-.5-.5-.5-.5v-1l-.5-.5-.5-.5v-1l-.5-.5-.5-.5v-1l-.5-.5-.5-.5v-2l-.5-.5-.5-.5v-1l-.5-.5-.5-.5v-1l-.5-.5-.5-.5v-1l-.5-.5-.5-.5v-2l-.5-.5-.5-.5v-1l-.5-.5-.5-.5v-2l-.5-.5-.5-.5v-1l-.5-.5-.5-.5v-2l-.5-.5-.5-.5v-2l-.5-.5-.5-.5v-2l-.5-.5-.5-.5v-2l-.5-.5-.5-.5v-2l-.5-.5-.5-.5v-2l-.5-.5-.5-.5v-2l-.5-.5-.5-.5v-3l-.5-.5-.5-.5v-2l-.5-.5-.5-.5v-3l-.5-.5-.5-.5v-3l-.5-.5-.5-.5v-4l-.5-.5-.5-.5v-4l-.5-.5-.5-.5v-3l-.5-.5-.5-.5v-5l-.5-.5-.5-.5v-6l-.5-.5-.5-.5v-7l-.5-.5-.5-.5v-10l-.5-.5-.5-.5v-38l.5-.5.5-.5v-10l.5-.5.5-.5v-8l.5-.5.5-.5v-6l.5-.5.5-.5v-5l.5-.5.5-.5v-4l.5-.5.5-.5v-4l.5-.5.5-.5v-4l.5-.5.5-.5v-3l.5-.5.5-.5v-3l.5-.5.5-.5v-3l.5-.5.5-.5v-2l.5-.5.5-.5v-2l.5-.5.5-.5v-2l.5-.5.5-.5v-3l.5-.5.5-.5v-1l.5-.5.5-.5v-2l.5-.5.5-.5v-2l.5-.5.5-.5v-2l.5-.5.5-.5v-2l.5-.5.5-.5v-1l.5-.5.5-.5v-2l.5-.5.5-.5v-1l.5-.5.5-.5v-1l.5-.5.5-.5v-2l.5-.5.5-.5v-1l.5-.5.5-.5v-1l.5-.5.5-.5v-1l.5-.5.5-.5v-1l.5-.5.5-.5v-1l.5-.5.5-.5v-1l.5-.5.5-.5v-1l.5-.5.5-.5v-1l.5-.5.5-.5v-1l.5-.5.5-.5v-1l.5-.5.5-.5v-1l.5-.5.5-.5.5-.5.5-.5v-1l.5-.5.5-.5v-1l.5-.5.5-.5v-1l.5-.5.5-.5.5-.5.5-.5v-1l.5-.5.5-.5.5-.5.5-.5v-1l.5-.5.5-.5v-1l.5-.5.5-.5.5-.5.5-.5v-1l.5-.5.5-.5.5-.5.5-.5v-1l.5-.5.5-.5.5-.5.5-.5v-1l.5-.5.5-.5.5-.5.5-.5v-1l.5-.5.5-.5.5-.5.5-.5.5-.5.5-.5v-1l.5-.5.5-.5.5-.5.5-.5v-1l.5-.5.5-.5.5-.5.5-.5.5-.5.5-.5.5-.5.5-.5v-1l.5-.5.5-.5.5-.5.5-.5.5-.5.5-.5v-1l.5-.5.5-.5.5-.5.5-.5.5-.5.5-.5.5-.5.5-.5.5-.5.5-.5.5-.5.5-.5v-1l.5-.5.5-.5.5-.5.5-.5.5-.5.5-.5.5-.5.5-.5.5-.5.5-.5.5-.5.5-.5.5-.5.5-.5.5-.5.5-.5.5-.5.5-.5v-1l.5-.5.5-.5.5-.5.5-.5.5-.5.5-.5.5-.5.5-.5.5-.5.5-.5.5-.5.5-.5.5-.5.5-.5.5-.5.5-.5.5-.5.5-.5.5-.5.5-.5.5-.5.5-.5.5-.5h1l.5-.5.5-.5.5-.5.5-.5.5-.5.5-.5.5-.5.5-.5.5-.5.5-.5.5-.5.5-.5.5-.5.5-.5.5-.5.5-.5.5-.5.5-.5h1l.5-.5.5-.5.5-.5.5-.5.5-.5.5-.5.5-.5.5-.5.5-.5.5-.5.5-.5.5-.5h1l.5-.5.5-.5.5-.5.5-.5.5-.5.5-.5h1l.5-.5.5-.5.5-.5.5-.5.5-.5.5-.5h1l.5-.5.5-.5.5-.5.5-.5.5-.5.5-.5h1l.5-.5.5-.5.5-.5.5-.5h1l.5-.5.5-.5.5-.5.5-.5h1l.5-.5.5-.5.5-.5.5-.5h1l.5-.5.5-.5.5-.5.5-.5h1l.5-.5.5-.5.5-.5.5-.5h1l.5-.5.5-.5h1l.5-.5.5-.5.5-.5.5-.5h1l.5-.5.5-.5h1l.5-.5.5-.5.5-.5.5-.5h1l.5-.5.5-.5h1l.5-.5.5-.5h1l.5-.5.5-.5h1l.5-.5.5-.5h1l.5-.5.5-.5h1l.5-.5.5-.5.5-.5.5-.5h1l.5-.5.5-.5h1l.5-.5.5-.5h1l.5-.5.5-.5h2l.5-.5.5-.5h1l.5-.5.5-.5h1l.5-.5.5-.5h1l.5-.5.5-.5h2l.5-.5.5-.5h1l.5-.5.5-.5h2l.5-.5.5-.5h1l.5-.5.5-.5h2l.5-.5.5-.5h1l.5-.5.5-.5h2l.5-.5.5-.5h2l.5-.5.5-.5h2l.5-.5.5-.5h2l.5-.5.5-.5h2l.5-.5.5-.5h2l.5-.5.5-.5h3l.5-.5.5-.5h3l.5-.5.5-.5h3l.5-.5.5-.5h3l.5-.5.5-.5h3l.5-.5.5-.5h4l.5-.5.5-.5h4l.5-.5.5-.5h5l.5-.5.5-.5h6l.5-.5.5-.5h8l.5-.5.5-.5h10l.5-.5.5-.5h37l.5.5.5.5h10l.5.5.5.5h8l.5.5.5.5h5l.5.5.5.5h6l.5.5.5.5h4l.5.5.5.5h3l.5.5.5.5h4l.5.5.5.5h3l.5.5.5.5h3l.5.5.5.5h3l.5.5.5.5h2l.5.5.5.5h2l.5.5.5.5h2l.5.5.5.5h2l.5.5.5.5h2l.5.5.5.5h2l.5.5.5.5h2l.5.5.5.5h2l.5.5.5.5h1l.5.5.5.5h2l.5.5.5.5h1l.5.5.5.5h2l.5.5.5.5h1l.5.5.5.5h1l.5.5.5.5h1l.5.5.5.5h2l.5.5.5.5h1l.5.5.5.5h1l.5.5.5.5h1l.5.5.5.5h1l.5.5.5.5h1l.5.5.5.5.5.5.5.5h1l.5.5.5.5h1l.5.5.5.5h1l.5.5.5.5h1l.5.5.5.5.5.5.5.5h1l.5.5.5.5h1l.5.5.5.5.5.5.5.5h1l.5.5.5.5.5.5.5.5h1l.5.5.5.5.5.5.5.5.5.5-.5.5-.5.5-.5.5-.5.5-.5.5h-1l-.5.5-.5.5-.5.5-.5.5-.5.5-.5.5-.5.5-.5.5h-1l-.5.5-.5.5-.5.5-.5.5-.5.5-.5.5h-1l-.5.5-.5.5-.5.5-.5.5-.5.5-.5.5-.5.5-.5.5h-1l-.5.5-.5.5-.5.5-.5.5-.5.5-.5.5h-3l-.5-.5-.5-.5-.5-.5-.5-.5h-1l-.5-.5-.5-.5h-1l-.5-.5-.5-.5h-1l-.5-.5-.5-.5h-1l-.5-.5-.5-.5h-1l-.5-.5-.5-.5h-1l-.5-.5-.5-.5h-1l-.5-.5-.5-.5h-1l-.5-.5-.5-.5h-1l-.5-.5-.5-.5h-1l-.5-.5-.5-.5h-1l-.5-.5-.5-.5h-2l-.5-.5-.5-.5h-1l-.5-.5-.5-.5h-1l-.5-.5-.5-.5h-2l-.5-.5-.5-.5h-2l-.5-.5-.5-.5h-1l-.5-.5-.5-.5h-2l-.5-.5-.5-.5h-2l-.5-.5-.5-.5h-2l-.5-.5-.5-.5h-2l-.5-.5-.5-.5h-2l-.5-.5-.5-.5h-3l-.5-.5-.5-.5h-2l-.5-.5-.5-.5h-3l-.5-.5-.5-.5h-3l-.5-.5-.5-.5h-4l-.5-.5-.5-.5h-3l-.5-.5-.5-.5h-5l-.5-.5-.5-.5h-5l-.5-.5-.5-.5h-7l-.5-.5-.5-.5h-9l-.5-.5-.5-.5h-40l-.5.5-.5.5h-10l-.5.5-.5.5h-7l-.5.5-.5.5h-5l-.5.5-.5.5h-5l-.5.5-.5.5h-4l-.5.5-.5.5h-3l-.5.5-.5.5h-4l-.5.5-.5.5h-2l-.5.5-.5.5h-3l-.5.5-.5.5h-3l-.5.5-.5.5h-2l-.5.5-.5.5h-2l-.5.5-.5.5h-2l-.5.5-.5.5h-2l-.5.5-.5.5h-2l-.5.5-.5.5h-2l-.5.5-.5.5h-1l-.5.5-.5.5h-2l-.5.5-.5.5h-2l-.5.5-.5.5h-1l-.5.5-.5.5h-1l-.5.5-.5.5h-2l-.5.5-.5.5h-1l-.5.5-.5.5h-1l-.5.5-.5.5h-1l-.5.5-.5.5h-2l-.5.5-.5.5h-1l-.5.5-.5.5h-1l-.5.5-.5.5h-1l-.5.5-.5.5-.5.5-.5.5h-1l-.5.5-.5.5h-1l-.5.5-.5.5h-1l-.5.5-.5.5h-1l-.5.5-.5.5h-1l-.5.5-.5.5-.5.5-.5.5h-1l-.5.5-.5.5h-1l-.5.5-.5.5-.5.5-.5.5h-1l-.5.5-.5.5h-1l-.5.5-.5.5-.5.5-.5.5h-1l-.5.5-.5.5-.5.5-.5.5h-1l-.5.5-.5.5-.5.5-.5.5h-1l-.5.5-.5.5-.5.5-.5.5-.5.5-.5.5h-1l-.5.5-.5.5-.5.5-.5.5h-1l-.5.5-.5.5-.5.5-.5.5-.5.5-.5.5-.5.5-.5.5h-1l-.5.5-.5.5-.5.5-.5.5-.5.5-.5.5-.5.5-.5.5h-1l-.5.5-.5.5-.5.5-.5.5-.5.5-.5.5-.5.5-.5.5-.5.5-.5.5-.5.5-.5.5h-1l-.5.5-.5.5-.5.5-.5.5-.5.5-.5.5-.5.5-.5.5-.5.5-.5.5-.5.5-.5.5-.5.5-.5.5-.5.5-.5.5-.5.5-.5.5-.5.5-.5.5-.5.5-.5.5-.5.5-.5.5-.5.5-.5.5-.5.5-.5.5-.5.5-.5.5-.5.5-.5.5-.5.5-.5.5-.5.5-.5.5-.5.5v1l-.5.5-.5.5-.5.5-.5.5-.5.5-.5.5-.5.5-.5.5-.5.5-.5.5-.5.5-.5.5-.5.5-.5.5v1l-.5.5-.5.5-.5.5-.5.5-.5.5-.5.5-.5.5-.5.5v1l-.5.5-.5.5-.5.5-.5.5-.5.5-.5.5v1l-.5.5-.5.5-.5.5-.5.5-.5.5-.5.5v1l-.5.5-.5.5-.5.5-.5.5-.5.5-.5.5v1l-.5.5-.5.5-.5.5-.5.5v1l-.5.5-.5.5-.5.5-.5.5v1l-.5.5-.5.5-.5.5-.5.5v1l-.5.5-.5.5-.5.5-.5.5v1l-.5.5-.5.5v1l-.5.5-.5.5-.5.5-.5.5v1l-.5.5-.5.5v1l-.5.5-.5.5v1l-.5.5-.5.5-.5.5-.5.5v1l-.5.5-.5.5v1l-.5.5-.5.5v1l-.5.5-.5.5v1l-.5.5-.5.5v1l-.5.5-.5.5v1l-.5.5-.5.5v1l-.5.5-.5.5v1l-.5.5-.5.5v1l-.5.5-.5.5v2l-.5.5-.5.5v1l-.5.5-.5.5v1l-.5.5-.5.5v2l-.5.5-.5.5v1l-.5.5-.5.5v2l-.5.5-.5.5v2l-.5.5-.5.5v1l-.5.5-.5.5v2l-.5.5-.5.5v2l-.5.5-.5.5v2l-.5.5-.5.5v2l-.5.5-.5.5v3l-.5.5-.5.5v2l-.5.5-.5.5v3l-.5.5-.5.5v4l-.5.5-.5.5v3l-.5.5-.5.5v4l-.5.5-.5.5v4l-.5.5-.5.5v5l-.5.5-.5.5v6l-.5.5-.5.5v8l-.5.5-.5.5v13l-.5.5-.5.5v24l.5.5.5.5v12l.5.5.5.5v7l.5.5.5.5v6l.5.5.5.5v5l.5.5.5.5v4l.5.5.5.5v3l.5.5.5.5v4l.5.5.5.5v3l.5.5.5.5v3l.5.5.5.5v2l.5.5.5.5v2l.5.5.5.5v3l.5.5.5.5v2l.5.5.5.5v2l.5.5.5.5v2l.5.5.5.5v1l.5.5.5.5v2l.5.5.5.5v2l.5.5.5.5v1l.5.5.5.5v1l.5.5.5.5v2l.5.5.5.5v1l.5.5.5.5v1l.5.5.5.5v1l.5.5.5.5v1l.5.5.5.5v1l.5.5.5.5v1l.5.5.5.5v1l.5.5.5.5v1l.5.5.5.5v1l.5.5.5.5v1l.5.5.5.5v1l.5.5.5.5v1l.5.5.5.5.5.5.5.5v1l.5.5.5.5v1l.5.5.5.5.5.5.5.5v1l.5.5.5.5v1l.5.5.5.5.5.5.5.5v1l.5.5.5.5.5.5.5.5v1l.5.5.5.5.5.5.5.5v1l.5.5.5.5.5.5.5.5.5.5.5.5v1l.5.5.5.5.5.5.5.5v1l.5.5.5.5.5.5.5.5.5.5.5.5.5.5.5.5v1l.5.5.5.5.5.5.5.5.5.5.5.5v1l.5.5.5.5.5.5.5.5.5.5.5.5.5.5.5.5v1l.5.5.5.5.5.5.5.5.5.5.5.5.5.5.5.5.5.5.5.5.5.5.5.5v1l.5.5.5.5.5.5.5.5.5.5.5.5.5.5.5.5.5.5.5.5.5.5.5.5.5.5.5.5.5.5.5.5.5.5.5.5.5.5.5.5.5.5.5.5.5.5.5.5.5.5.5.5.5.5.5.5.5.5.5.5.5.5.5.5.5.5.5.5.5.5.5.5.5.5.5.5.5.5.5.5.5.5h1l.5.5.5.5.5.5.5.5.5.5.5.5.5.5.5.5.5.5.5.5.5.5.5.5.5.5.5.5h1l.5.5.5.5.5.5.5.5.5.5.5.5.5.5.5.5h1l.5.5.5.5.5.5.5.5.5.5.5.5h1l.5.5.5.5.5.5.5.5h1l.5.5.5.5.5.5.5.5h1l.5.5.5.5.5.5.5.5.5.5.5.5h1l.5.5.5.5h1l.5.5.5.5.5.5.5.5h1l.5.5.5.5h1l.5.5.5.5h1l.5.5.5.5.5.5.5.5h1l.5.5.5.5h1l.5.5.5.5h2l.5.5.5.5h2l.5.5.5.5h2l.5.5.5.5h5l.5.5.5.5h2l.5-.5.5-.5h6l.5-.5.5-.5h3l.5-.5.5-.5h3l.5-.5.5-.5h1l.5-.5.5-.5h2l.5-.5.5-.5h2l.5-.5.5-.5h1l.5-.5.5-.5h1l.5-.5.5-.5h1l.5-.5.5-.5h1l.5-.5.5-.5h1l.5-.5.5-.5h1l.5-.5.5-.5.5-.5.5-.5h1l.5-.5.5-.5h1l.5-.5.5-.5.5-.5.5-.5h1l.5-.5.5-.5.5-.5.5-.5h1l.5-.5.5-.5.5-.5.5-.5.5-.5.5-.5h1l.5-.5.5-.5.5-.5.5-.5.5-.5.5-.5h1l.5-.5.5-.5.5-.5.5-.5.5-.5.5-.5.5-.5.5-.5.5-.5.5-.5h1l.5-.5.5-.5.5-.5.5-.5.5-.5.5-.5.5-.5.5-.5.5-.5.5-.5.5-.5.5-.5.5-.5.5-.5h1l.5-.5.5-.5.5-.5.5-.5.5-.5.5-.5.5-.5.5-.5.5-.5.5-.5.5-.5.5-.5.5-.5.5-.5.5-.5.5-.5.5-.5.5-.5.5-.5.5-.5.5-.5v-1l.5-.5.5-.5.5-.5.5-.5.5-.5.5-.5.5-.5.5-.5.5-.5.5-.5.5-.5.5-.5v-1l.5-.5.5-.5.5-.5.5-.5.5-.5.5-.5v-1l.5-.5.5-.5.5-.5.5-.5.5-.5.5-.5v-1l.5-.5.5-.5.5-.5.5-.5v-1l.5-.5.5-.5.5-.5.5-.5v-1l.5-.5.5-.5v-1l.5-.5.5-.5v-1l.5-.5.5-.5.5-.5.5-.5v-1l.5-.5.5-.5v-1l.5-.5.5-.5v-1l.5-.5.5-.5v-1l.5-.5.5-.5v-1l.5-.5.5-.5v-1l.5-.5.5-.5v-1l.5-.5.5-.5v-1l.5-.5.5-.5v-2l.5-.5.5-.5v-1l.5-.5.5-.5v-2l.5-.5.5-.5v-2l.5-.5.5-.5v-2l.5-.5.5-.5v-2l.5-.5.5-.5v-3l.5-.5.5-.5v-2l.5-.5.5-.5v-4l.5-.5.5-.5v-3l.5-.5.5-.5v-4l.5-.5.5-.5v-4l.5-.5.5-.5v-5l.5-.5.5-.5v-5l.5-.5.5-.5v-7l.5-.5.5-.5v-7l.5-.5.5-.5v-9l.5-.5.5-.5v-8l.5-.5.5-.5v-9l.5-.5.5-.5v-10l.5-.5.5-.5v-9l.5-.5.5-.5v-8l.5-.5.5-.5v-6l.5-.5.5-.5v-5l.5-.5.5-.5v-4l.5-.5.5-.5v-2l.5-.5.5-.5v-3l.5-.5.5-.5v-2l.5-.5.5-.5v-2l.5-.5.5-.5v-2l.5-.5.5-.5v-1l.5-.5.5-.5v-2l.5-.5.5-.5v-1l.5-.5.5-.5v-1l.5-.5.5-.5v-1l.5-.5.5-.5v-1l.5-.5.5-.5v-1l.5-.5.5-.5v-1l.5-.5.5-.5.5-.5.5-.5v-1l.5-.5.5-.5.5-.5.5-.5v-1l.5-.5.5-.5.5-.5.5-.5v-1l.5-.5.5-.5.5-.5.5-.5.5-.5.5-.5v-1l.5-.5.5-.5.5-.5.5-.5.5-.5.5-.5.5-.5.5-.5.5-.5.5-.5.5-.5.5-.5.5-.5.5-.5.5-.5.5-.5.5-.5.5-.5.5-.5.5-.5.5-.5.5-.5.5-.5.5-.5.5-.5.5-.5.5-.5.5-.5.5-.5.5-.5.5-.5.5-.5.5-.5.5-.5.5-.5.5-.5.5-.5h1l.5-.5.5-.5.5-.5.5-.5.5-.5.5-.5.5-.5.5-.5h1l.5-.5.5-.5.5-.5.5-.5.5-.5.5-.5h1l.5-.5.5-.5.5-.5.5-.5h1l.5-.5.5-.5.5-.5.5-.5h1l.5-.5.5-.5.5-.5.5-.5.5-.5.5-.5h1l.5-.5.5-.5.5-.5.5-.5h1l.5-.5.5-.5h1l.5-.5.5-.5.5-.5.5-.5h1l.5-.5.5-.5.5-.5.5-.5h1l.5-.5.5-.5.5-.5.5-.5h1l.5-.5.5-.5.5-.5.5-.5h1l.5-.5.5-.5.5-.5.5-.5.5-.5.5-.5h1l.5-.5.5-.5.5-.5.5-.5h1l.5-.5.5-.5.5-.5.5-.5h1l.5-.5.5-.5.5-.5.5-.5.5-.5.5-.5h1l.5-.5.5-.5.5-.5.5-.5.5-.5.5-.5h1l.5-.5.5-.5.5-.5.5-.5.5-.5.5-.5h1l.5-.5.5-.5.5-.5.5-.5.5-.5.5-.5.5-.5.5-.5h1l.5-.5.5-.5.5-.5.5-.5.5-.5.5-.5.5-.5.5-.5.5-.5.5-.5.5-.5.5-.5h1l.5-.5.5-.5.5-.5.5-.5.5-.5.5-.5.5-.5.5-.5.5-.5.5-.5.5-.5.5-.5.5-.5.5-.5.5-.5.5-.5.5-.5.5-.5.5-.5.5-.5.5-.5.5-.5.5-.5.5-.5.5-.5.5-.5.5-.5.5-.5.5-.5v-1l.5-.5.5-.5.5-.5.5-.5.5-.5.5-.5.5-.5.5-.5.5-.5.5-.5.5-.5.5-.5.5-.5.5-.5v-1l.5-.5.5-.5.5-.5.5-.5.5-.5.5-.5.5-.5.5-.5v-1l.5-.5.5-.5.5-.5.5-.5.5-.5.5-.5.5-.5.5-.5v-1l.5-.5.5-.5.5-.5.5-.5.5-.5.5-.5v-1l.5-.5.5-.5.5-.5.5-.5v-1l.5-.5.5-.5.5-.5.5-.5v-1l.5-.5.5-.5.5-.5.5-.5v-1l.5-.5.5-.5.5-.5.5-.5v-1l.5-.5.5-.5.5-.5.5-.5v-1l.5-.5.5-.5v-1l.5-.5.5-.5.5-.5.5-.5v-1l.5-.5.5-.5v-1l.5-.5.5-.5v-1l.5-.5.5-.5.5-.5.5-.5v-1l.5-.5.5-.5v-1l.5-.5.5-.5v-1l-.5-.5-.5.5-.5.5-.5.5-.5.5h-1l-.5.5-.5.5-.5.5-.5.5-.5.5-.5.5-.5.5-.5.5-.5.5-.5.5-.5.5-.5.5-.5.5-.5.5-.5.5-.5.5h-1l-.5.5-.5.5-.5.5-.5.5-.5.5-.5.5-.5.5-.5.5-.5.5-.5.5h-1l-.5.5-.5.5-.5.5-.5.5-.5.5-.5.5h-1l-.5.5-.5.5-.5.5-.5.5-.5.5-.5.5h-1l-.5.5-.5.5-.5.5-.5.5-.5.5-.5.5h-1l-.5.5-.5.5-.5.5-.5.5-.5.5-.5.5h-1l-.5.5-.5.5-.5.5-.5.5h-1l-.5.5-.5.5-.5.5-.5.5h-1l-.5.5-.5.5-.5.5-.5.5h-1l-.5.5-.5.5-.5.5-.5.5h-1l-.5.5-.5.5h-1l-.5.5-.5.5-.5.5-.5.5h-1l-.5.5-.5.5h-1l-.5.5-.5.5-.5.5-.5.5h-1l-.5.5-.5.5h-1l-.5.5-.5.5-.5.5-.5.5h-1l-.5.5-.5.5h-1l-.5.5-.5.5h-1l-.5.5-.5.5h-1l-.5.5-.5.5-.5.5-.5.5h-1l-.5.5-.5.5h-1l-.5.5-.5.5h-1l-.5.5-.5.5h-1l-.5.5-.5.5h-1l-.5.5-.5.5h-1l-.5.5-.5.5h-1l-.5.5-.5.5h-2l-.5.5-.5.5h-1l-.5.5-.5.5h-1l-.5.5-.5.5h-2l-.5.5-.5.5h-1l-.5.5-.5.5h-2l-.5.5-.5.5h-1l-.5.5-.5.5h-2l-.5.5-.5.5h-2l-.5.5-.5.5h-1l-.5.5-.5.5h-2l-.5.5-.5.5h-2l-.5.5-.5.5h-3l-.5.5-.5.5h-2l-.5.5-.5.5h-2l-.5.5-.5.5h-3l-.5.5-.5.5h-3l-.5.5-.5.5h-3l-.5.5-.5.5h-4l-.5.5-.5.5h-4l-.5.5-.5.5h-5l-.5.5-.5.5h-4l-.5.5-.5.5h-7l-.5.5-.5.5h-6l-.5.5-.5.5h-9l-.5.5-.5.5h-12l-.5.5-.5.5h-76l-.5.5-.5.5h-11l-.5.5-.5.5h-6l-.5.5-.5.5h-4l-.5.5-.5.5h-2l-.5.5-.5.5h-3l-.5.5-.5.5h-2l-.5.5-.5.5h-2l-.5.5-.5.5h-1l-.5.5-.5.5h-2l-.5.5-.5.5h-1l-.5.5-.5.5h-1l-.5.5-.5.5h-1l-.5.5-.5.5-.5.5-.5.5h-1l-.5.5-.5.5h-1l-.5.5-.5.5-.5.5-.5.5h-1l-.5.5-.5.5-.5.5-.5.5h-1l-.5.5-.5.5-.5.5-.5.5-.5.5-.5.5-.5.5-.5.5-.5.5-.5.5-.5.5-.5.5-.5.5-.5.5-.5.5-.5.5-.5.5-.5.5-.5.5-.5.5-.5.5-.5.5-.5.5-.5.5-.5.5-.5.5-.5.5-.5.5-.5.5v1l-.5.5-.5.5-.5.5-.5.5v1l-.5.5-.5.5-.5.5-.5.5v1l-.5.5-.5.5v1l-.5.5-.5.5v1l-.5.5-.5.5-.5.5-.5.5v1l-.5.5-.5.5v2l-.5.5-.5.5v1l-.5.5-.5.5v2l-.5.5-.5.5v2l-.5.5-.5.5v2l-.5.5-.5.5v3l-.5.5-.5.5v4l-.5.5-.5.5v10l.5.5.5-.5.5-.5.5-.5.5-.5.5-.5.5-.5.5-.5.5-.5.5-.5.5-.5.5-.5.5-.5.5-.5.5-.5.5-.5.5-.5.5-.5.5-.5.5-.5.5-.5.5-.5.5-.5.5-.5.5-.5h1l.5-.5.5-.5.5-.5.5-.5.5-.5.5-.5.5-.5.5-.5h1l.5-.5.5-.5.5-.5.5-.5h1l.5-.5.5-.5.5-.5.5-.5h1l.5-.5.5-.5h1l.5-.5.5-.5h1l.5-.5.5-.5h1l.5-.5.5-.5h1l.5-.5.5-.5h1l.5-.5.5-.5h2l.5-.5.5-.5h2l.5-.5.5-.5h2l.5-.5.5-.5h3l.5-.5.5-.5h4l.5-.5.5-.5h5l.5-.5.5-.5h10l.5-.5.5-.5h28l.5-.5.5-.5h14l.5-.5.5-.5h9l.5-.5.5-.5h7l.5-.5.5-.5h6l.5-.5.5-.5h4l.5-.5.5-.5h4l.5-.5.5-.5h3l.5-.5.5-.5h2l.5.5v2l-.5.5-.5.5v1l-.5.5-.5.5v3l-.5.5-.5.5v2l-.5.5-.5.5v4l-.5.5-.5.5v3l-.5.5-.5.5v5l-.5.5-.5.5v5l-.5.5-.5.5v7l-.5.5-.5.5v10l-.5.5-.5.5v15l-.5.5-.5.5v33l.5.5.5.5v63l-.5.5-.5.5v9l-.5.5-.5.5v6l-.5.5-.5.5v4l-.5.5-.5.5v4l-.5.5-.5.5v3l-.5.5-.5.5v3l-.5.5-.5.5v2l-.5.5-.5.5v2l-.5.5-.5.5v2l-.5.5-.5.5v2l-.5.5-.5.5v1l-.5.5-.5.5v2l-.5.5-.5.5v1l-.5.5-.5.5v2l-.5.5-.5.5v1l-.5.5-.5.5v1l-.5.5-.5.5v1l-.5.5-.5.5v1l-.5.5-.5.5v1l-.5.5-.5.5v1l-.5.5-.5.5v1l-.5.5-.5.5v1l-.5.5-.5.5v1l-.5.5-.5.5-.5.5-.5.5v1l-.5.5-.5.5-.5.5-.5.5v1l-.5.5-.5.5-.5.5-.5.5-.5.5-.5.5v1l-.5.5-.5.5-.5.5-.5.5-.5.5-.5.5-.5.5-.5.5-.5.5-.5.5-.5.5-.5.5-.5.5-.5.5-.5.5-.5.5-.5.5-.5.5-.5.5-.5.5-.5.5-.5.5-.5.5-.5.5-.5.5-.5.5-.5.5-.5.5-.5.5h-1l-.5.5-.5.5-.5.5-.5.5-.5.5-.5.5-.5.5-.5.5h-1l-.5.5-.5.5-.5.5-.5.5-.5.5-.5.5h-1l-.5.5-.5.5-.5.5-.5.5h-1l-.5-.5.5-.5.5-.5.5-.5.5-.5v-1l.5-.5.5-.5.5-.5.5-.5v-1l.5-.5.5-.5.5-.5.5-.5v-1l.5-.5.5-.5v-1l.5-.5.5-.5v-1l.5-.5.5-.5v-1l.5-.5.5-.5v-1l.5-.5.5-.5v-1l.5-.5.5-.5v-1l.5-.5.5-.5v-1l.5-.5.5-.5v-1l.5-.5.5-.5v-2l.5-.5.5-.5v-1l.5-.5.5-.5v-2l.5-.5.5-.5v-2l.5-.5.5-.5v-2l.5-.5.5-.5v-3l.5-.5.5-.5v-2l.5-.5.5-.5v-3l.5-.5.5-.5v-3l.5-.5.5-.5v-3l.5-.5.5-.5v-4l.5-.5.5-.5v-5l.5-.5.5-.5v-6l.5-.5.5-.5v-7l.5-.5.5-.5v-10l.5-.5.5-.5v-23l.5-.5.5-.5v-21l-.5-.5-.5-.5v-27l-.5-.5-.5-.5v-24l-.5-.5-.5-.5v-40l-.5-.5h-4l-.5.5-.5.5h-70l-.5.5-.5.5h-8l-.5.5-.5.5h-5l-.5.5-.5.5h-4l-.5.5-.5.5h-3l-.5.5-.5.5h-2l-.5.5-.5.5h-2l-.5.5-.5.5h-1l-.5.5-.5.5h-2l-.5.5-.5.5h-1l-.5.5-.5.5h-1l-.5.5-.5.5h-2l-.5-.5v-2l-.5-.5-.5-.5v-2l-.5-.5-.5-.5v-3l-.5-.5-.5-.5v-4l-.5-.5-.5-.5v-5l-.5-.5-.5-.5v-8l-.5-.5-.5-.5v-11l.5-.5.5-.5v-9l.5-.5.5-.5v-5l.5-.5.5-.5v-3l.5-.5.5-.5v-3l.5-.5.5-.5v-2l.5-.5.5-.5v-2l.5-.5.5-.5v-1l.5-.5.5-.5v-1l.5-.5.5-.5v-1l.5-.5.5-.5v-1l.5-.5.5-.5v-1l.5-.5.5-.5.5-.5.5-.5v-1l.5-.5.5-.5.5-.5.5-.5.5-.5.5-.5v-1l.5-.5.5-.5.5-.5.5-.5.5-.5.5-.5.5-.5.5-.5.5-.5.5-.5.5-.5.5-.5.5-.5.5-.5.5-.5.5-.5.5-.5.5-.5.5-.5.5-.5.5-.5.5-.5.5-.5.5-.5.5-.5.5-.5.5-.5.5-.5.5-.5h1l.5-.5.5-.5.5-.5.5-.5.5-.5.5-.5h1l.5-.5.5-.5.5-.5.5-.5h1l.5-.5.5-.5.5-.5.5-.5h1l.5-.5.5-.5h1l.5-.5.5-.5h1l.5-.5.5-.5h1l.5-.5.5-.5h1l.5-.5.5-.5h1l.5-.5.5-.5h1l.5-.5.5-.5h2l.5-.5.5-.5h2l.5-.5.5-.5h1l.5-.5.5-.5h2l.5-.5.5-.5h3l.5-.5.5-.5h3l.5-.5.5-.5h4l.5-.5.5-.5h4l.5-.5.5-.5h6l.5-.5.5-.5h10l.5-.5.5-.5h54l.5-.5.5-.5h21l.5-.5.5-.5h10l.5-.5.5-.5h8l.5-.5.5-.5h7l.5-.5.5-.5h4l.5-.5.5-.5h5l.5-.5.5-.5h4l.5-.5.5-.5h4l.5-.5.5-.5h3l.5-.5.5-.5h2l.5-.5.5-.5h3l.5-.5.5-.5h3l.5-.5.5-.5h2l.5-.5.5-.5h2l.5-.5.5-.5h2l.5-.5.5-.5h2l.5-.5.5-.5h1l.5-.5.5-.5h2l.5-.5.5-.5h1l.5-.5.5-.5h2l.5-.5.5-.5h1l.5-.5.5-.5h1l.5-.5.5-.5h2l.5-.5.5-.5h1l.5-.5.5-.5h1l.5-.5.5-.5h1l.5-.5.5-.5h1l.5-.5.5-.5h1l.5-.5.5-.5h1l.5-.5.5-.5h1l.5-.5.5-.5h1l.5-.5.5-.5h1l.5-.5.5-.5h1l.5-.5.5-.5.5-.5.5-.5h1l.5-.5.5-.5h1l.5-.5.5-.5h1l.5-.5.5-.5.5-.5.5-.5h1l.5-.5.5-.5h1l.5-.5.5-.5.5-.5.5-.5h1l.5-.5.5-.5.5-.5.5-.5h1l.5-.5.5-.5h1l.5-.5.5-.5.5-.5.5-.5h1l.5-.5.5-.5.5-.5.5-.5h1l.5-.5.5-.5.5-.5.5-.5.5-.5.5-.5h1l.5-.5.5-.5.5-.5.5-.5h1l.5-.5.5-.5.5-.5.5-.5.5-.5.5-.5h1l.5-.5.5-.5.5-.5.5-.5h1l.5-.5.5-.5.5-.5.5-.5.5-.5.5-.5.5-.5.5-.5h1l.5-.5.5-.5.5-.5.5-.5.5-.5.5-.5h1l.5-.5.5-.5.5-.5.5-.5.5-.5.5-.5.5-.5.5-.5h1l.5-.5.5-.5.5-.5.5-.5.5-.5.5-.5.5-.5.5-.5h1l.5-.5.5-.5.5-.5.5-.5.5-.5.5-.5.5-.5.5-.5.5-.5.5-.5h1l.5-.5.5-.5.5-.5.5-.5.5-.5.5-.5.5-.5.5-.5.5-.5.5-.5.5-.5.5-.5h1l.5-.5.5-.5.5-.5.5-.5.5-.5.5-.5.5-.5.5-.5.5-.5.5-.5.5-.5.5-.5h1l.5-.5.5-.5.5-.5.5-.5.5-.5.5-.5.5-.5.5-.5.5-.5.5-.5.5-.5.5-.5.5-.5.5-.5.5-.5.5-.5.5-.5.5-.5.5-.5.5-.5h1l.5-.5.5-.5.5-.5.5-.5.5-.5.5-.5.5-.5.5-.5.5-.5.5-.5.5-.5.5-.5.5-.5.5-.5.5-.5.5-.5.5-.5.5-.5.5-.5.5-.5.5-.5.5-.5.5-.5.5-.5.5-.5.5-.5.5-.5.5-.5.5-.5.5-.5.5-.5.5-.5.5-.5.5-.5.5-.5.5-.5.5-.5.5-.5.5-.5v-1l.5-.5.5-.5.5-.5.5-.5.5-.5.5-.5.5-.5.5-.5.5-.5.5-.5.5-.5.5-.5.5-.5.5-.5.5-.5.5-.5.5-.5.5-.5.5-.5.5-.5v-1l.5-.5.5-.5.5-.5.5-.5.5-.5.5-.5.5-.5.5-.5.5-.5.5-.5.5-.5.5-.5v-1l.5-.5.5-.5.5-.5.5-.5.5-.5.5-.5.5-.5.5-.5.5-.5.5-.5v-1l.5-.5.5-.5.5-.5.5-.5.5-.5h1l.5.5v45l-.5.5-.5.5v15l-.5.5-.5.5v12l-.5.5-.5.5v8l-.5.5-.5.5v7l-.5.5-.5.5v6l-.5.5-.5.5v6l-.5.5-.5.5v4l-.5.5-.5.5v4l-.5.5-.5.5v3l-.5.5-.5.5v3l-.5.5-.5.5v2l-.5.5-.5.5v2l-.5.5-.5.5v2l-.5.5-.5.5v1l-.5.5-.5.5v2l-.5.5-.5.5v1l-.5.5-.5.5v1l-.5.5-.5.5v1l-.5.5-.5.5v1l-.5.5-.5.5-.5.5-.5.5v1l-.5.5-.5.5-.5.5-.5.5v1l-.5.5-.5.5-.5.5-.5.5v1l-.5.5-.5.5-.5.5-.5.5-.5.5-.5.5v1l-.5.5-.5.5-.5.5-.5.5-.5.5-.5.5-.5.5-.5.5-.5.5-.5.5-.5.5-.5.5-.5.5-.5.5-.5.5-.5.5-.5.5-.5.5-.5.5-.5.5-.5.5-.5.5-.5.5-.5.5-.5.5-.5.5-.5.5-.5.5-.5.5h-1l-.5.5-.5.5-.5.5-.5.5-.5.5-.5.5h-1l-.5.5-.5.5-.5.5-.5.5h-1l-.5.5-.5.5-.5.5-.5.5h-1l-.5.5-.5.5h-1l-.5.5-.5.5-.5.5-.5.5h-1l-.5-.5v-1l.5-.5.5-.5v-2l.5-.5.5-.5.5-.5.5-.5v-1l.5-.5.5-.5v-2l.5-.5.5-.5v-1l.5-.5.5-.5v-2l.5-.5.5-.5v-1l.5-.5.5-.5v-2l.5-.5.5-.5v-2l.5-.5.5-.5v-2l.5-.5.5-.5v-3l.5-.5.5-.5v-2l.5-.5.5-.5v-3l.5-.5.5-.5v-3l.5-.5.5-.5v-3l.5-.5.5-.5v-3l.5-.5.5-.5v-3l.5-.5.5-.5v-4l.5-.5.5-.5v-4l.5-.5.5-.5v-5l.5-.5.5-.5v-5l.5-.5.5-.5v-5l.5-.5.5-.5v-7l.5-.5.5-.5v-4l-.5-.5-.5.5v1l-.5.5-.5.5v2l-.5.5-.5.5v1l-.5.5-.5.5v2l-.5.5-.5.5v2l-.5.5-.5.5v1l-.5.5-.5.5v2l-.5.5-.5.5v2l-.5.5-.5.5v2l-.5.5-.5.5v2l-.5.5-.5.5v2l-.5.5-.5.5v1l-.5.5-.5.5v2l-.5.5-.5.5v2l-.5.5-.5.5v1l-.5.5-.5.5v2l-.5.5-.5.5v2l-.5.5-.5.5v1l-.5.5-.5.5v2l-.5.5-.5.5v1l-.5.5-.5.5v1l-.5.5-.5.5v2l-.5.5-.5.5v1l-.5.5-.5.5v1l-.5.5-.5.5v1l-.5.5-.5.5v1l-.5.5-.5.5v1l-.5.5-.5.5v1l-.5.5-.5.5v1l-.5.5-.5.5v1l-.5.5-.5.5v1l-.5.5-.5.5v1l-.5.5-.5.5-.5.5-.5.5v1l-.5.5-.5.5v1l-.5.5-.5.5-.5.5-.5.5v1l-.5.5-.5.5-.5.5-.5.5v1l-.5.5-.5.5-.5.5-.5.5v1l-.5.5-.5.5-.5.5-.5.5-.5.5-.5.5v1l-.5.5-.5.5-.5.5-.5.5-.5.5-.5.5-.5.5-.5.5v1l-.5.5-.5.5-.5.5-.5.5-.5.5-.5.5-.5.5-.5.5-.5.5-.5.5v1l-.5.5-.5.5-.5.5-.5.5-.5.5-.5.5-.5.5-.5.5-.5.5-.5.5-.5.5-.5.5-.5.5-.5.5-.5.5-.5.5-.5.5-.5.5-.5.5-.5.5-.5.5-.5.5-.5.5-.5.5-.5.5-.5.5-.5.5-.5.5-.5.5h-1l-.5.5-.5.5-.5.5-.5.5-.5.5-.5.5-.5.5-.5.5-.5.5-.5.5-.5.5-.5.5h-1l-.5.5-.5.5-.5.5-.5.5-.5.5-.5.5h-1l-.5.5-.5.5-.5.5-.5.5-.5.5-.5.5h-1l-.5.5-.5.5-.5.5-.5.5-.5.5-.5.5h-1l-.5.5-.5.5-.5.5-.5.5-.5.5-.5.5h-1l-.5.5-.5.5-.5.5-.5.5h-1l-.5.5-.5.5-.5.5-.5.5h-1l-.5.5-.5.5-.5.5-.5.5h-1l-.5.5-.5.5-.5.5-.5.5h-1l-.5.5-.5.5-.5.5-.5.5h-1l-.5.5-.5.5-.5.5-.5.5-.5.5-.5.5h-1l-.5.5-.5.5-.5.5-.5.5-.5.5-.5.5h-1l-.5.5-.5.5-.5.5-.5.5-.5.5-.5.5-.5.5-.5.5-.5.5-.5.5-.5.5-.5.5-.5.5-.5.5-.5.5-.5.5h-1l-.5.5-.5.5-.5.5v1l-.5.5-.5.5-.5.5-.5.5-.5.5-.5.5-.5.5-.5.5-.5.5-.5.5-.5.5-.5.5-.5.5-.5.5v1l-.5.5-.5.5-.5.5-.5.5-.5.5-.5.5v1l-.5.5-.5.5-.5.5-.5.5v1l-.5.5-.5.5-.5.5-.5.5v1l-.5.5-.5.5v1l-.5.5-.5.5-.5.5-.5.5v1l-.5.5-.5.5v1l-.5.5-.5.5v1l-.5.5-.5.5v2l-.5.5-.5.5v1l-.5.5-.5.5v2l-.5.5-.5.5v2l-.5.5-.5.5v3l-.5.5-.5.5v3l-.5.5-.5.5v3l-.5.5-.5.5v5l-.5.5-.5.5v7l-.5.5-.5.5v11l-.5.5-.5.5v13l-.5.5-.5.5v12l-.5.5-.5.5v10l-.5.5-.5.5v8l-.5.5-.5.5v6l-.5.5-.5.5v6l-.5.5-.5.5v6l-.5.5-.5.5v4l-.5.5-.5.5v4l-.5.5-.5.5v4l-.5.5-.5.5v3l-.5.5-.5.5v3l-.5.5-.5.5v3l-.5.5-.5.5v2l-.5.5-.5.5v2l-.5.5-.5.5v3l-.5.5-.5.5v2l-.5.5-.5.5v1l-.5.5-.5.5v2l-.5.5-.5.5v2l-.5.5-.5.5v1l-.5.5-.5.5v1l-.5.5-.5.5v2l-.5.5-.5.5v1l-.5.5-.5.5v1l-.5.5-.5.5v1l-.5.5-.5.5v1l-.5.5-.5.5v1l-.5.5-.5.5-.5.5-.5.5v1l-.5.5-.5.5v1l-.5.5-.5.5v1l-.5.5-.5.5-.5.5-.5.5v1l-.5.5-.5.5v1l-.5.5-.5.5-.5.5-.5.5-.5.5-.5.5v1l-.5.5-.5.5-.5.5-.5.5v1l-.5.5-.5.5-.5.5-.5.5-.5.5-.5.5v1l-.5.5-.5.5-.5.5-.5.5-.5.5-.5.5v1l-.5.5-.5.5-.5.5-.5.5-.5.5-.5.5-.5.5-.5.5-.5.5-.5.5-.5.5-.5.5-.5.5-.5.5-.5.5-.5.5-.5.5-.5.5-.5.5-.5.5-.5.5-.5.5-.5.5-.5.5-.5.5-.5.5-.5.5-.5.5-.5.5-.5.5-.5.5-.5.5-.5.5-.5.5-.5.5-.5.5-.5.5-.5.5-.5.5-.5.5-.5.5-.5.5-.5.5-.5.5-.5.5h-1l-.5.5-.5.5-.5.5-.5.5-.5.5-.5.5-.5.5-.5.5-.5.5-.5.5h-1l-.5.5-.5.5-.5.5-.5.5-.5.5-.5.5h-1l-.5.5-.5.5-.5.5-.5.5h-1l-.5.5-.5.5-.5.5-.5.5-.5.5-.5.5h-1l-.5.5-.5.5-.5.5-.5.5h-1l-.5.5-.5.5h-1l-.5.5-.5.5-.5.5-.5.5h-1l-.5.5-.5.5h-1l-.5.5-.5.5h-1l-.5.5-.5.5-.5.5-.5.5h-1l-.5.5-.5.5h-1l-.5.5-.5.5h-1l-.5.5-.5.5h-2l-.5.5-.5.5h-1l-.5.5-.5.5h-1l-.5.5-.5.5h-1l-.5.5-.5.5h-2l-.5.5-.5.5h-1l-.5.5-.5.5h-2l-.5.5-.5.5h-2l-.5.5-.5.5h-2l-.5.5-.5.5h-3l-.5.5-.5.5h-4l-.5.5-.5.5h-4l-.5.5-.5.5h-10l-.5.5zm130 34h-39l-.5-.5-.5-.5h-10l-.5-.5-.5-.5h-6l-.5-.5-.5-.5h-6l-.5-.5-.5-.5h-4l-.5-.5-.5-.5h-4l-.5-.5-.5-.5h-4l-.5-.5-.5-.5h-3l-.5-.5-.5-.5h-3l-.5-.5-.5-.5h-2l-.5-.5-.5-.5h-2l-.5-.5-.5-.5h-2l-.5-.5-.5-.5h-2l-.5-.5-.5-.5h-2l-.5-.5-.5-.5h-1l-.5-.5-.5-.5h-1l-.5-.5-.5-.5h-2l-.5-.5v-1l.5-.5h4l.5-.5.5-.5h4l.5-.5.5-.5h3l.5-.5.5-.5h2l.5-.5.5-.5h2l.5-.5.5-.5h2l.5-.5.5-.5h2l.5-.5.5-.5h2l.5-.5.5-.5h1l.5-.5.5-.5h2l.5-.5.5-.5h1l.5-.5.5-.5h1l.5-.5.5-.5h1l.5-.5.5-.5h2l.5.5.5.5h4l.5.5.5.5h5l.5.5.5.5h6l.5.5.5.5h11l.5.5.5.5h30l.5-.5.5-.5h11l.5-.5.5-.5h7l.5-.5.5-.5h5l.5-.5.5-.5h6l.5-.5.5-.5h4l.5-.5.5-.5h3l.5-.5.5-.5h4l.5-.5.5-.5h3l.5-.5.5-.5h2l.5-.5.5-.5h3l.5-.5.5-.5h2l.5-.5.5-.5h3l.5-.5.5-.5h2l.5-.5.5-.5h2l.5-.5.5-.5h2l.5-.5.5-.5h1l.5-.5.5-.5h2l.5-.5.5-.5h2l.5-.5.5-.5h1l.5-.5.5-.5h2l.5-.5.5-.5h1l.5-.5.5-.5h1l.5-.5.5-.5h2l.5-.5.5-.5h1l.5-.5.5-.5h1l.5-.5.5-.5h1l.5-.5.5-.5h1l.5-.5.5-.5h1l.5-.5.5-.5h1l.5-.5.5-.5h1l.5-.5.5-.5h1l.5-.5.5-.5h1l.5-.5.5-.5h1l.5-.5.5-.5.5-.5.5-.5h1l.5-.5.5-.5h1l.5-.5.5-.5h1l.5-.5.5-.5.5-.5.5-.5h1l.5-.5.5-.5.5-.5.5-.5h1l.5-.5.5-.5.5-.5.5-.5h1l.5-.5.5-.5h1l.5-.5.5-.5.5-.5.5-.5.5-.5.5-.5h1l.5-.5.5-.5.5-.5.5-.5h1l.5-.5.5-.5.5-.5.5-.5.5-.5.5-.5h1l.5-.5.5-.5.5-.5.5-.5.5-.5.5-.5h1l.5-.5.5-.5.5-.5.5-.5.5-.5.5-.5.5-.5.5-.5h1l.5-.5.5-.5.5-.5.5-.5.5-.5.5-.5.5-.5.5-.5.5-.5.5-.5.5-.5.5-.5.5-.5.5-.5h1l.5-.5.5-.5.5-.5.5-.5.5-.5.5-.5.5-.5.5-.5.5-.5.5-.5.5-.5.5-.5.5-.5.5-.5.5-.5.5-.5.5-.5.5-.5.5-.5.5-.5.5-.5.5-.5.5-.5.5-.5.5-.5.5-.5.5-.5.5-.5.5-.5.5-.5.5-.5.5-.5.5-.5.5-.5.5-.5.5-.5.5-.5.5-.5.5-.5.5-.5.5-.5.5-.5.5-.5v-1l.5-.5.5-.5.5-.5.5-.5.5-.5.5-.5.5-.5.5-.5.5-.5.5-.5.5-.5.5-.5v-1l.5-.5.5-.5.5-.5.5-.5.5-.5.5-.5.5-.5.5-.5v-1l.5-.5.5-.5.5-.5.5-.5.5-.5.5-.5.5-.5.5-.5v-1l.5-.5.5-.5.5-.5.5-.5.5-.5.5-.5v-1l.5-.5.5-.5.5-.5.5-.5v-1l.5-.5.5-.5.5-.5.5-.5v-1l.5-.5.5-.5.5-.5.5-.5v-1l.5-.5.5-.5.5-.5.5-.5v-1l.5-.5.5-.5.5-.5.5-.5v-1l.5-.5.5-.5.5-.5.5-.5v-1l.5-.5.5-.5v-1l.5-.5.5-.5.5-.5.5-.5v-1l.5-.5.5-.5v-1l.5-.5.5-.5v-1l.5-.5.5-.5v-1l.5-.5.5-.5v-1l.5-.5.5-.5.5-.5.5-.5v-1l.5-.5.5-.5v-1l.5-.5.5-.5v-1l.5-.5.5-.5v-1l.5-.5.5-.5v-2l.5-.5.5-.5v-1l.5-.5.5-.5v-1l.5-.5.5-.5v-1l.5-.5.5-.5v-2l.5-.5.5-.5v-1l.5-.5.5-.5v-2l.5-.5.5-.5v-1l.5-.5.5-.5v-2l.5-.5.5-.5v-2l.5-.5.5-.5v-2l.5-.5.5-.5v-2l.5-.5.5-.5v-2l.5-.5.5-.5v-2l.5-.5.5-.5v-3l.5-.5.5-.5v-2l.5-.5.5-.5v-3l.5-.5.5-.5v-3l.5-.5.5-.5v-4l.5-.5.5-.5v-3l.5-.5.5-.5v-5l.5-.5.5-.5v-5l.5-.5.5-.5v-6l.5-.5.5-.5v-10l.5-.5.5-.5v-40l-.5-.5-.5-.5v-10l-.5-.5-.5-.5v-7l-.5-.5-.5-.5v-5l-.5-.5-.5-.5v-5l-.5-.5-.5-.5v-4l-.5-.5-.5-.5v-4l-.5-.5-.5-.5v-3l-.5-.5-.5-.5v-3l-.5-.5-.5-.5v-3l-.5-.5-.5-.5v-3l-.5-.5-.5-.5v-2l-.5-.5-.5-.5v-2l-.5-.5-.5-.5v-2l-.5-.5-.5-.5v-2l-.5-.5-.5-.5v-2l-.5-.5-.5-.5v-2l-.5-.5-.5-.5v-1l-.5-.5-.5-.5v-2l-.5-.5-.5-.5v-1l-.5-.5-.5-.5v-2l-.5-.5-.5-.5v-1l-.5-.5-.5-.5v-1l-.5-.5-.5-.5v-2l-.5-.5-.5-.5v-1l-.5-.5-.5-.5v-1l-.5-.5-.5-.5v-1l-.5-.5-.5-.5v-1l-.5-.5-.5-.5v-1l-.5-.5-.5-.5v-1l-.5-.5-.5-.5v-1l-.5-.5-.5-.5v-1l-.5-.5-.5-.5-.5-.5-.5-.5v-1l-.5-.5-.5-.5v-1l-.5-.5-.5-.5v-1l-.5-.5-.5-.5.5-.5.5-.5.5-.5.5-.5v-1l.5-.5.5-.5v-1l.5-.5.5-.5v-1l.5-.5.5-.5.5-.5.5-.5v-2l.5-.5.5-.5v-1l.5-.5.5-.5v-1l.5-.5.5-.5v-1l.5-.5.5-.5v-2l.5-.5.5-.5v-1l.5-.5.5-.5v-2l.5-.5.5-.5v-2l.5-.5.5.5.5.5.5.5v1l.5.5.5.5v1l.5.5.5.5v1l.5.5.5.5.5.5.5.5v1l.5.5.5.5v1l.5.5.5.5.5.5.5.5v1l.5.5.5.5v1l.5.5.5.5v1l.5.5.5.5v1l.5.5.5.5v1l.5.5.5.5.5.5.5.5v1l.5.5.5.5v1l.5.5.5.5v1l.5.5.5.5v1l.5.5.5.5v2l.5.5.5.5v1l.5.5.5.5v1l.5.5.5.5v1l.5.5.5.5v1l.5.5.5.5v2l.5.5.5.5v1l.5.5.5.5v1l.5.5.5.5v2l.5.5.5.5v1l.5.5.5.5v2l.5.5.5.5v2l.5.5.5.5v1l.5.5.5.5v2l.5.5.5.5v2l.5.5.5.5v2l.5.5.5.5v2l.5.5.5.5v3l.5.5.5.5v2l.5.5.5.5v3l.5.5.5.5v2l.5.5.5.5v3l.5.5.5.5v3l.5.5.5.5v4l.5.5.5.5v4l.5.5.5.5v4l.5.5.5.5v5l.5.5.5.5v5l.5.5.5.5v8l.5.5.5.5v10l.5.5.5.5v40l-.5.5-.5.5v11l-.5.5-.5.5v7l-.5.5-.5.5v5l-.5.5-.5.5v5l-.5.5-.5.5v4l-.5.5-.5.5v4l-.5.5-.5.5v3l-.5.5-.5.5v3l-.5.5-.5.5v3l-.5.5-.5.5v2l-.5.5-.5.5v3l-.5.5-.5.5v2l-.5.5-.5.5v2l-.5.5-.5.5v2l-.5.5-.5.5v2l-.5.5-.5.5v2l-.5.5-.5.5v2l-.5.5-.5.5v1l-.5.5-.5.5v2l-.5.5-.5.5v1l-.5.5-.5.5v1l-.5.5-.5.5v2l-.5.5-.5.5v1l-.5.5-.5.5v1l-.5.5-.5.5v2l-.5.5-.5.5v1l-.5.5-.5.5v1l-.5.5-.5.5v1l-.5.5-.5.5v1l-.5.5-.5.5v1l-.5.5-.5.5v1l-.5.5-.5.5v1l-.5.5-.5.5v1l-.5.5-.5.5-.5.5-.5.5v1l-.5.5-.5.5v1l-.5.5-.5.5v1l-.5.5-.5.5v1l-.5.5-.5.5-.5.5-.5.5v1l-.5.5-.5.5v1l-.5.5-.5.5-.5.5-.5.5v1l-.5.5-.5.5-.5.5-.5.5v1l-.5.5-.5.5v1l-.5.5-.5.5-.5.5-.5.5v1l-.5.5-.5.5-.5.5-.5.5v1l-.5.5-.5.5-.5.5-.5.5-.5.5-.5.5v1l-.5.5-.5.5-.5.5-.5.5v1l-.5.5-.5.5-.5.5-.5.5-.5.5-.5.5v1l-.5.5-.5.5-.5.5-.5.5-.5.5-.5.5v1l-.5.5-.5.5-.5.5-.5.5-.5.5-.5.5-.5.5-.5.5-.5.5-.5.5v1l-.5.5-.5.5-.5.5-.5.5-.5.5-.5.5-.5.5-.5.5-.5.5-.5.5v1l-.5.5-.5.5-.5.5-.5.5-.5.5-.5.5-.5.5-.5.5-.5.5-.5.5-.5.5-.5.5-.5.5-.5.5-.5.5-.5.5-.5.5-.5.5-.5.5-.5.5-.5.5-.5.5-.5.5-.5.5-.5.5-.5.5-.5.5-.5.5-.5.5-.5.5-.5.5-.5.5-.5.5-.5.5-.5.5-.5.5-.5.5-.5.5-.5.5-.5.5-.5.5-.5.5-.5.5-.5.5-.5.5-.5.5-.5.5-.5.5-.5.5-.5.5-.5.5-.5.5-.5.5-.5.5-.5.5-.5.5-.5.5h-1l-.5.5-.5.5-.5.5-.5.5-.5.5-.5.5-.5.5-.5.5-.5.5-.5.5h-1l-.5.5-.5.5-.5.5-.5.5-.5.5-.5.5-.5.5-.5.5h-1l-.5.5-.5.5-.5.5-.5.5-.5.5-.5.5h-1l-.5.5-.5.5-.5.5-.5.5-.5.5-.5.5h-1l-.5.5-.5.5-.5.5-.5.5-.5.5-.5.5h-1l-.5.5-.5.5-.5.5-.5.5h-1l-.5.5-.5.5-.5.5-.5.5h-1l-.5.5-.5.5-.5.5-.5.5h-1l-.5.5-.5.5-.5.5-.5.5h-1l-.5.5-.5.5h-1l-.5.5-.5.5-.5.5-.5.5h-1l-.5.5-.5.5h-1l-.5.5-.5.5-.5.5-.5.5h-1l-.5.5-.5.5h-1l-.5.5-.5.5h-1l-.5.5-.5.5h-1l-.5.5-.5.5-.5.5-.5.5h-1l-.5.5-.5.5h-1l-.5.5-.5.5h-1l-.5.5-.5.5h-1l-.5.5-.5.5h-1l-.5.5-.5.5h-1l-.5.5-.5.5h-2l-.5.5-.5.5h-1l-.5.5-.5.5h-1l-.5.5-.5.5h-1l-.5.5-.5.5h-1l-.5.5-.5.5h-2l-.5.5-.5.5h-1l-.5.5-.5.5h-2l-.5.5-.5.5h-1l-.5.5-.5.5h-2l-.5.5-.5.5h-2l-.5.5-.5.5h-2l-.5.5-.5.5h-2l-.5.5-.5.5h-2l-.5.5-.5.5h-2l-.5.5-.5.5h-2l-.5.5-.5.5h-2l-.5.5-.5.5h-3l-.5.5-.5.5h-3l-.5.5-.5.5h-3l-.5.5-.5.5h-3l-.5.5-.5.5h-4l-.5.5-.5.5h-4l-.5.5-.5.5h-5l-.5.5-.5.5h-6l-.5.5-.5.5h-6l-.5.5-.5.5h-10l-.5.5z" fill="#07B8C9" fill-rule="evenodd"/></svg>